<?xml version="1.0" encoding="UTF-8" standalone="no"?>
<!-- Created with Inkscape (http://www.inkscape.org/) -->

<svg
   width="512"
   height="512"
   viewBox="0 0 512 512"
   version="1.1"
   id="svg1"
   inkscape:version="1.3.2 (091e20e, 2023-11-25, custom)"
   sodipodi:docname="Logo_Lebrel_v2.svg"
   xmlns:inkscape="http://www.inkscape.org/namespaces/inkscape"
   xmlns:sodipodi="http://sodipodi.sourceforge.net/DTD/sodipodi-0.dtd"
   xmlns="http://www.w3.org/2000/svg"
   xmlns:svg="http://www.w3.org/2000/svg">
  <sodipodi:namedview
     id="namedview1"
     pagecolor="#ffffff"
     bordercolor="#000000"
     borderopacity="0.25"
     inkscape:showpageshadow="2"
     inkscape:pageopacity="0.0"
     inkscape:pagecheckerboard="0"
     inkscape:deskcolor="#d1d1d1"
     inkscape:document-units="px"
     inkscape:zoom="1.7763672"
     inkscape:cx="73.746014"
     inkscape:cy="320.03518"
     inkscape:window-width="3840"
     inkscape:window-height="2054"
     inkscape:window-x="-11"
     inkscape:window-y="-11"
     inkscape:window-maximized="1"
     inkscape:current-layer="layer1" />
  <defs
     id="defs1" />
  <g
     inkscape:label="Capa 1"
     inkscape:groupmode="layer"
     id="layer1">
    <rect
       style="fill:#101528;fill-opacity:1;stroke:none;stroke-width:6.323;stroke-dasharray:none;stroke-opacity:1"
       id="rect42"
       width="512"
       height="512"
       x="0"
       y="0"
       rx="102.4" />
    <circle
       style="fill:#111629;fill-opacity:1;stroke:#3b7fee;stroke-width:23.3584;stroke-dasharray:none;stroke-opacity:1"
       id="path41"
       cx="250"
       cy="250"
       r="213.3208" />
    <path
       id="path14"
       style="fill:#ffffff;fill-opacity:1;stroke-width:2.25766"
       d="m 298.13424,348.46132 c 2.54614,-0.55745 4.62936,-1.17859 4.62936,-1.3804 0,-0.20171 -0.6048,-0.86295 -1.34404,-1.46926 -0.73918,-0.60634 -2.68804,-2.39851 -4.33069,-3.98263 -2.8626,-2.76055 -3.21,-2.91653 -8.36275,-3.75471 -2.95679,-0.48097 -5.95356,-1.10056 -6.65944,-1.37684 -0.70587,-0.27614 -6.19765,-4.66875 -12.20397,-9.76109 -14.61674,-12.39243 -15.48267,-13.17279 -15.48865,-13.95758 -0.002,-0.37247 -1.02955,-2.82758 -2.28166,-5.45588 -3.57452,-7.50336 -4.76396,-11.0492 -5.10946,-15.2321 -0.17647,-2.13548 -0.59242,-6.43631 -0.92453,-9.55744 -0.33212,-3.12104 -0.78006,-7.91811 -0.99543,-10.66008 -0.63861,-8.13011 -4.85895,-26.57146 -7.54036,-32.94866 -0.69169,-1.64504 -11.87557,-15.39929 -13.59736,-16.72236 -0.21367,-0.16453 -2.77162,-2.98666 -5.68415,-6.27204 -2.91253,-3.28533 -5.98578,-6.73699 -6.82948,-7.67034 l -1.53405,-1.6969 1.81483,0.80093 c 0.99814,0.4405 6.71482,3.20413 12.70369,6.14141 l 10.88891,5.34054 6.11239,9.50268 c 3.36186,5.22646 6.95006,10.48478 7.97382,11.6851 2.69121,3.15547 19.05319,14.05147 20.1589,13.42452 0.47818,-0.27103 4.83608,-4.25624 9.68425,-8.85574 4.84812,-4.5995 9.12394,-8.63153 9.50179,-8.96006 0.37787,-0.32837 1.99956,-1.80695 3.6038,-3.28534 1.60427,-1.47842 2.63069,-2.28484 2.28092,-1.79203 -1.66836,2.35081 -14.52348,19.27175 -17.29691,22.76758 -1.73456,2.18638 -2.91155,4.18755 -2.63497,4.48004 0.51668,0.54634 2.94451,5.08692 9.86446,18.44871 2.21191,4.27099 4.22199,8.03421 4.46686,8.36275 0.45517,0.61072 6.55538,12.0581 8.4353,15.82943 1.14371,2.29438 0.78074,3.25878 -1.41032,3.74738 -0.72919,0.16245 -3.9273,1.0077 -7.10693,1.87797 l -5.78119,1.58231 -3.93609,-2.40912 c -2.16483,-1.32506 -4.20611,-2.40917 -4.53615,-2.40917 -0.74144,0 -9.42654,4.37484 -10.92648,5.50386 -0.9912,0.74609 -0.30345,1.20327 7.30712,4.85799 l 8.40126,4.03443 8.22369,-1.27259 c 4.52301,-0.69991 11.04302,-1.6736 14.48888,-2.16368 3.44586,-0.49015 6.26919,-0.939 6.27408,-0.99755 0.003,-0.0583 0.5604,-0.91279 1.23453,-1.89839 2.85014,-4.16707 2.93065,-5.11594 0.91546,-10.78851 -4.65463,-13.10258 -12.15267,-36.15022 -11.85683,-36.44605 0.1362,-0.1362 3.31793,-1.30457 7.07038,-2.59628 3.75244,-1.29169 9.51064,-3.33835 12.796,-4.5481 3.28538,-1.20979 8.06981,-2.86345 10.63209,-3.67483 l 4.65873,-1.47524 3.4832,-5.4784 c 1.91573,-3.01317 4.79215,-7.56425 6.39201,-10.11358 4.57947,-7.29718 10.77071,-14.92261 20.48615,-25.23177 1.85767,-1.97123 4.84519,-5.29796 6.63893,-7.3928 1.79374,-2.09478 4.80061,-4.99528 6.68198,-6.44549 3.3991,-2.62012 3.46504,-2.64114 10.45344,-3.33244 8.88057,-0.87848 11.20921,-0.87208 17.48612,0.0485 5.512,0.80825 14.24402,1.85638 17.78876,2.13525 2.89021,0.22733 10.71574,-3.69593 13.34498,-6.69041 l 1.87678,-2.13756 -1.31396,-1.06405 c -1.21805,-0.98631 -9.44883,-5.65735 -18.47967,-10.48747 -5.86573,-3.13722 -6.15084,-3.39698 -9.31016,-8.48298 l -2.96263,-4.76938 -5.10139,-1.87009 c -2.8058,-1.02857 -5.77346,-2.11221 -6.59477,-2.40809 -0.82135,-0.29593 -3.9636,-1.07861 -6.98278,-1.73935 l -5.48948,-1.20133 -3.32956,1.27413 -3.32965,1.2742 -3.72504,-1.58116 c -4.00145,-1.69847 -5.57212,-1.90338 -7.72893,-1.00826 -0.7547,0.31334 -5.00095,1.83244 -9.4362,3.37609 -4.43522,1.54364 -8.27734,2.99257 -8.53809,3.21976 -0.26077,0.22733 1.59697,1.40995 4.12809,2.6283 4.12467,1.98537 4.92534,2.17474 7.71894,1.82569 3.14066,-0.39238 6.0273,0.43022 5.35082,1.5248 -0.18364,0.29696 -4.96234,3.28029 -10.61949,6.62945 -5.65712,3.34916 -12.16731,7.21821 -14.46707,8.59785 -2.29974,1.37965 -5.7544,3.39119 -7.67704,4.47006 l -3.4957,1.96161 -4.56836,-1.04199 c -8.47251,-1.93241 -11.10092,-2.57765 -23.98184,-5.8868 -34.28458,-8.80783 -53.34071,-13.53817 -54.53849,-13.53817 -0.72513,0 -4.94591,0.94642 -9.37953,2.10319 -4.43368,1.15674 -14.24363,3.69756 -21.79996,5.64621 -20.4412,5.27151 -22.49846,5.84339 -22.97802,6.3873 -0.24148,0.27408 -4.4187,4.92714 -9.28264,10.34041 -4.86395,5.41331 -9.85618,11.12348 -11.09385,12.68925 -1.99912,2.52907 -7.44873,7.07475 -25.9808,21.67142 -9.23869,7.27678 -10.28043,7.82487 -23.36673,12.29384 l -12.42934,4.24461 -9.557431,-1.01561 c -12.109446,-1.28672 -17.039506,-2.29843 -19.859746,-4.07536 -4.386761,-2.76397 -22.209702,-12.94082 -22.663536,-12.94082 -0.25392,0 0.864095,1.14239 2.48446,2.53867 1.620363,1.3963 4.470517,3.88912 6.333667,5.5396 1.86315,1.65054 5.987212,5.11342 9.164588,7.69529 l 5.777047,4.69432 6.992407,1.32746 c 3.845847,0.73006 9.986195,1.95194 13.645264,2.71519 l 6.65284,1.38774 13.05931,-3.21096 c 16.59218,-4.07965 15.16435,-3.44574 26.88379,-11.93525 6.94708,-5.0324 9.71431,-7.00944 16.63976,-11.88811 l 3.58402,-2.52478 0.35729,4.68692 c 0.39885,5.23165 0.56372,5.63592 5.1129,12.53625 2.83599,4.30178 6.83507,8.53913 8.0589,8.53913 0.22777,0 2.78734,1.37605 5.68794,3.05787 2.90061,1.68182 8.90264,5.06753 13.33789,7.5238 10.97299,6.07701 13.58744,7.88935 16.75125,11.61195 2.47051,2.90681 4.03667,4.8873 10.85959,13.73223 1.81706,2.35558 2.55979,4.22389 4.05872,10.20954 1.00906,4.02952 2.47074,9.4768 3.2482,12.10506 0.77742,2.6283 1.57465,5.73668 1.77153,6.90757 0.44192,2.62799 2.42921,4.56648 9.90296,9.6601 8.29836,5.65559 9.37671,6.41506 23.97236,16.88323 7.32914,5.25657 13.81901,9.69182 14.42198,9.85611 2.01572,0.54914 9.04478,0.0504 13.72341,-0.97396 z m -90.42535,-8.95106 c 3.80108,-0.39981 6.85059,-1.688 11.65286,-4.92231 1.3544,-0.91224 6.29383,-3.78872 10.97648,-6.39218 4.68266,-2.60348 8.44587,-4.90844 8.36272,-5.12211 -0.0828,-0.21367 -1.56238,-1.49921 -3.28719,-2.8568 -1.72483,-1.35757 -3.13603,-2.73087 -3.13603,-3.05175 0,-1.22508 -1.62656,-0.44807 -7.58737,3.62452 -5.93408,4.05429 -6.33572,4.22812 -10.99953,4.76002 -2.66228,0.30345 -5.14696,0.79221 -5.52154,1.08571 -0.37458,0.29355 -1.35303,0.69902 -2.17438,0.9011 -1.14811,0.28261 -2.15071,1.64782 -4.3373,5.9064 -1.56419,3.04643 -2.84101,5.9055 -2.83735,6.35347 0.005,0.61444 0.63023,0.72847 2.54531,0.46431 1.39627,-0.19251 4.25076,-0.53026 6.34332,-0.75038 z m 22.04498,-33.35499 c -1.40671,-4.91914 -1.7439,-5.33405 -7.75826,-9.54668 l -1.27239,-0.89123 1.09224,-4.78229 1.09222,-4.78227 -2.25608,-2.85506 c -1.24084,-1.57026 -3.59069,-4.67118 -5.22181,-6.89093 -1.63113,-2.21976 -3.17664,-3.90551 -3.43452,-3.74617 -0.60396,0.37327 -1.33508,2.29581 -3.52739,9.27543 -0.98033,3.12111 -2.7442,8.43441 -3.91967,11.80741 -1.17551,3.37297 -2.13732,6.50116 -2.13732,6.95151 0,1.01654 11.05794,5.49707 23.59479,9.56031 1.64268,0.53237 3.38989,1.22572 3.88271,1.54077 1.39865,0.89413 1.3681,-0.38621 -0.13449,-5.6408 z m 40.6059,-10.12081 c 6.65187,-6.7015 12.09433,-12.59848 12.09433,-13.10447 0,-0.83107 -7.32453,-15.01467 -8.29761,-16.06779 -0.22289,-0.24131 -2.89379,3.25295 -5.93483,7.76541 -3.04108,4.51245 -7.67512,11.29571 -10.2979,15.07386 -3.76176,5.41889 -4.70862,7.20144 -4.48418,8.44212 0.35128,1.94219 3.9484,10.07535 4.45606,10.07535 0.20343,0 5.81225,-5.48301 12.46413,-12.18448 z" />
  </g>
</svg>
